<svg xmlns="http://www.w3.org/2000/svg" width="820" height="382" viewBox="0 0 820 382" font-family="-apple-system,Segoe UI,Roboto,sans-serif">
<rect width="820" height="382" rx="12" fill="#0d1117"/>
<text x="24" y="34" fill="#e6edf3" font-size="20" font-weight="600">agent-eval — travel-assistant-tool-calling</text>
<text x="24" y="56" fill="#8b949e" font-size="12">model mock-agent · temp 1.0 · 20 reps/case · 95% Wilson CI</text>
<text x="24" y="78" fill="#e6edf3" font-size="13"><tspan font-weight="600">92.1%</tspan><tspan fill="#8b949e"> mean reliability · </tspan><tspan font-weight="600" fill="#bf8700">2/7</tspan><tspan fill="#8b949e"> flaky · 140 total runs</tspan></text>
<line x1="234.0" y1="80" x2="234.0" y2="324" stroke="#30363d" stroke-width="1"/>
<text x="234.0" y="340" fill="#8b949e" font-size="10" text-anchor="middle">0%</text>
<line x1="463.0" y1="80" x2="463.0" y2="324" stroke="#30363d" stroke-width="1"/>
<text x="463.0" y="340" fill="#8b949e" font-size="10" text-anchor="middle">50%</text>
<line x1="692.0" y1="80" x2="692.0" y2="324" stroke="#30363d" stroke-width="1"/>
<text x="692.0" y="340" fill="#8b949e" font-size="10" text-anchor="middle">100%</text>
<text x="24" y="101.0" fill="#e6edf3" font-size="12" font-family="ui-monospace,Menlo,monospace">ambiguous_weather_vs_flight</text>
<text x="24" y="114.0" fill="#8b949e" font-size="9">30% flake</text>
<rect x="234" y="95.0" width="458.0" height="16" rx="4" fill="#21262d"/>
<rect x="234" y="95.0" width="320.6" height="16" rx="4" fill="#bf8700"/>
<line x1="454.3" y1="103.0" x2="625.4" y2="103.0" stroke="#e6edf3" stroke-width="2" opacity="0.85"/>
<line x1="454.3" y1="98.0" x2="454.3" y2="108.0" stroke="#e6edf3" stroke-width="2" opacity="0.85"/>
<line x1="625.4" y1="98.0" x2="625.4" y2="108.0" stroke="#e6edf3" stroke-width="2" opacity="0.85"/>
<text x="704.0" y="102.0" fill="#e6edf3" font-size="12" font-weight="600">70%</text>
<text x="704.0" y="114.0" fill="#8b949e" font-size="9">[48–85%]</text>
<text x="24" y="135.0" fill="#e6edf3" font-size="12" font-family="ui-monospace,Menlo,monospace">ambiguous_trip_plan</text>
<text x="24" y="148.0" fill="#8b949e" font-size="9">25% flake</text>
<rect x="234" y="129.0" width="458.0" height="16" rx="4" fill="#21262d"/>
<rect x="234" y="129.0" width="343.5" height="16" rx="4" fill="#bf8700"/>
<line x1="477.3" y1="137.0" x2="640.8" y2="137.0" stroke="#e6edf3" stroke-width="2" opacity="0.85"/>
<line x1="477.3" y1="132.0" x2="477.3" y2="142.0" stroke="#e6edf3" stroke-width="2" opacity="0.85"/>
<line x1="640.8" y1="132.0" x2="640.8" y2="142.0" stroke="#e6edf3" stroke-width="2" opacity="0.85"/>
<text x="704.0" y="136.0" fill="#e6edf3" font-size="12" font-weight="600">75%</text>
<text x="704.0" y="148.0" fill="#8b949e" font-size="9">[53–89%]</text>
<text x="24" y="169.0" fill="#e6edf3" font-size="12" font-family="ui-monospace,Menlo,monospace">weather_simple</text>
<text x="24" y="182.0" fill="#8b949e" font-size="9">stable</text>
<rect x="234" y="163.0" width="458.0" height="16" rx="4" fill="#21262d"/>
<rect x="234" y="163.0" width="458.0" height="16" rx="4" fill="#1a7f37"/>
<line x1="618.2" y1="171.0" x2="692.0" y2="171.0" stroke="#e6edf3" stroke-width="2" opacity="0.85"/>
<line x1="618.2" y1="166.0" x2="618.2" y2="176.0" stroke="#e6edf3" stroke-width="2" opacity="0.85"/>
<line x1="692.0" y1="166.0" x2="692.0" y2="176.0" stroke="#e6edf3" stroke-width="2" opacity="0.85"/>
<text x="704.0" y="170.0" fill="#e6edf3" font-size="12" font-weight="600">100%</text>
<text x="704.0" y="182.0" fill="#8b949e" font-size="9">[84–100%]</text>
<text x="24" y="203.0" fill="#e6edf3" font-size="12" font-family="ui-monospace,Menlo,monospace">weather_other_city</text>
<text x="24" y="216.0" fill="#8b949e" font-size="9">stable</text>
<rect x="234" y="197.0" width="458.0" height="16" rx="4" fill="#21262d"/>
<rect x="234" y="197.0" width="458.0" height="16" rx="4" fill="#1a7f37"/>
<line x1="618.2" y1="205.0" x2="692.0" y2="205.0" stroke="#e6edf3" stroke-width="2" opacity="0.85"/>
<line x1="618.2" y1="200.0" x2="618.2" y2="210.0" stroke="#e6edf3" stroke-width="2" opacity="0.85"/>
<line x1="692.0" y1="200.0" x2="692.0" y2="210.0" stroke="#e6edf3" stroke-width="2" opacity="0.85"/>
<text x="704.0" y="204.0" fill="#e6edf3" font-size="12" font-weight="600">100%</text>
<text x="704.0" y="216.0" fill="#8b949e" font-size="9">[84–100%]</text>
<text x="24" y="237.0" fill="#e6edf3" font-size="12" font-family="ui-monospace,Menlo,monospace">flight_search</text>
<text x="24" y="250.0" fill="#8b949e" font-size="9">stable</text>
<rect x="234" y="231.0" width="458.0" height="16" rx="4" fill="#21262d"/>
<rect x="234" y="231.0" width="458.0" height="16" rx="4" fill="#1a7f37"/>
<line x1="618.2" y1="239.0" x2="692.0" y2="239.0" stroke="#e6edf3" stroke-width="2" opacity="0.85"/>
<line x1="618.2" y1="234.0" x2="618.2" y2="244.0" stroke="#e6edf3" stroke-width="2" opacity="0.85"/>
<line x1="692.0" y1="234.0" x2="692.0" y2="244.0" stroke="#e6edf3" stroke-width="2" opacity="0.85"/>
<text x="704.0" y="238.0" fill="#e6edf3" font-size="12" font-weight="600">100%</text>
<text x="704.0" y="250.0" fill="#8b949e" font-size="9">[84–100%]</text>
<text x="24" y="271.0" fill="#e6edf3" font-size="12" font-family="ui-monospace,Menlo,monospace">send_email_simple</text>
<text x="24" y="284.0" fill="#8b949e" font-size="9">stable</text>
<rect x="234" y="265.0" width="458.0" height="16" rx="4" fill="#21262d"/>
<rect x="234" y="265.0" width="458.0" height="16" rx="4" fill="#1a7f37"/>
<line x1="618.2" y1="273.0" x2="692.0" y2="273.0" stroke="#e6edf3" stroke-width="2" opacity="0.85"/>
<line x1="618.2" y1="268.0" x2="618.2" y2="278.0" stroke="#e6edf3" stroke-width="2" opacity="0.85"/>
<line x1="692.0" y1="268.0" x2="692.0" y2="278.0" stroke="#e6edf3" stroke-width="2" opacity="0.85"/>
<text x="704.0" y="272.0" fill="#e6edf3" font-size="12" font-weight="600">100%</text>
<text x="704.0" y="284.0" fill="#8b949e" font-size="9">[84–100%]</text>
<text x="24" y="305.0" fill="#e6edf3" font-size="12" font-family="ui-monospace,Menlo,monospace">no_tool_chitchat</text>
<text x="24" y="318.0" fill="#8b949e" font-size="9">stable</text>
<rect x="234" y="299.0" width="458.0" height="16" rx="4" fill="#21262d"/>
<rect x="234" y="299.0" width="458.0" height="16" rx="4" fill="#1a7f37"/>
<line x1="618.2" y1="307.0" x2="692.0" y2="307.0" stroke="#e6edf3" stroke-width="2" opacity="0.85"/>
<line x1="618.2" y1="302.0" x2="618.2" y2="312.0" stroke="#e6edf3" stroke-width="2" opacity="0.85"/>
<line x1="692.0" y1="302.0" x2="692.0" y2="312.0" stroke="#e6edf3" stroke-width="2" opacity="0.85"/>
<text x="704.0" y="306.0" fill="#e6edf3" font-size="12" font-weight="600">100%</text>
<text x="704.0" y="318.0" fill="#8b949e" font-size="9">[84–100%]</text>
<text x="24" y="358" fill="#8b949e" font-size="10">bar = observed reliability · whisker = Wilson 95% CI · green stable · amber flaky · red failing</text>
</svg>